<?xml version="1.0" encoding="UTF-8"?>
<svg version="1.1" xmlns="http://www.w3.org/2000/svg" width="256" height="256">
<path d="M0 0 C15.63277296 13.1801551 20.36267804 30.02825585 22.3125 49.75 C24.62836796 77.51663868 20.58643152 106.57313836 12 133 C11.69388794 133.94549713 11.69388794 133.94549713 11.3815918 134.91009521 C3.64305984 158.75446456 -4.7411648 182.17485876 -16.25 204.5 C-16.73339844 205.43811523 -17.21679688 206.37623047 -17.71484375 207.34277344 C-20.69892713 212.96961012 -24.02147745 218.03044793 -28 223 C-28.6084375 223.79148438 -29.216875 224.58296875 -29.84375 225.3984375 C-37.21203176 234.19171715 -48.17958497 243.70981024 -60 245 C-67.1877146 245.20218606 -72.93813277 243.85629082 -79 240 C-79.886875 239.443125 -80.77375 238.88625 -81.6875 238.3125 C-94.69059177 225.30940823 -92.83620502 199.88770243 -94.55493164 182.55395508 C-95.8897688 166.34573498 -95.8897688 166.34573498 -100.125 150.75 C-100.47820312 149.83734375 -100.83140625 148.9246875 -101.1953125 147.984375 C-101.59363281 147.00210938 -101.59363281 147.00210938 -102 146 C-104.39019576 145.79121965 -104.39019576 145.79121965 -107 146 C-114.78689127 153.41608693 -115.79181841 163.55438793 -117.625 173.6875 C-119.67422923 184.57806745 -122.27504778 195.16675886 -125.5625 205.75 C-125.92617676 206.93166748 -126.28985352 208.11333496 -126.66455078 209.33081055 C-130.55363499 221.4818018 -134.88092033 232.15977943 -146.25 238.9375 C-153.45966672 241.72305305 -159.9886562 241.94416628 -167.13671875 238.890625 C-183.22729173 231.19953351 -194.6300452 209.03336892 -201 193 C-205.18927251 180.89052922 -208.34860502 168.47309917 -211.5 156.0625 C-211.86183884 154.64077988 -211.86183884 154.64077988 -212.23098755 153.19033813 C-215.95003948 138.53725194 -219.51087388 123.92025698 -222 109 C-222.19174805 107.90204102 -222.38349609 106.80408203 -222.58105469 105.67285156 C-225.23978475 90.08913688 -226.38549455 74.84644552 -226.4375 59.0625 C-226.4436734 58.26856842 -226.4498468 57.47463684 -226.45620728 56.65664673 C-226.53810987 40.35464414 -225.51751692 23.30895874 -213.84375 10.84375 C-203.35137285 0.35137285 -191.29384547 -4.95669559 -176.375 -5.5 C-165.90138188 -5.45891234 -156.50644578 -1.92759024 -146.734375 1.4921875 C-145.28187247 1.99658774 -143.82873887 2.49917417 -142.375 3 C-141.65038574 3.24983643 -140.92577148 3.49967285 -140.17919922 3.75708008 C-120.53309335 10.30225288 -100.43035224 15.65974083 -81 7 C-79.8251001 6.47744629 -79.8251001 6.47744629 -78.62646484 5.94433594 C-75.18836894 4.40913107 -71.75301391 2.86890039 -68.33056641 1.29907227 C-46.2616562 -8.80644495 -21.22288078 -15.732544 0 0 Z M-72.24169922 17.45385742 C-73.40072754 18.00920166 -74.55975586 18.5645459 -75.75390625 19.13671875 C-77.30573608 19.89021606 -77.30573608 19.89021606 -78.88891602 20.65893555 C-104.03283297 31.49747716 -134.53086976 19.18224026 -158.60229492 10.70458984 C-171.02369662 6.35866907 -181.06462495 5.8851675 -193.21484375 11.48046875 C-203.55295519 17.06483797 -207.75599523 22.99164728 -211.23828125 34.0703125 C-219.22103479 64.77321072 -210.81708356 103.70893769 -203.53240967 133.79602051 C-202.93350039 136.27528384 -202.3419759 138.75626055 -201.75048828 141.23730469 C-200.58800804 146.10077623 -199.40876792 150.95995922 -198.21853638 155.81671143 C-197.74718722 157.74090502 -197.27809472 159.66565311 -196.81149292 161.59100342 C-193.11893813 176.76305404 -189.02739938 191.67859389 -181.1875 205.3125 C-180.7644458 206.06031738 -180.3413916 206.80813477 -179.90551758 207.57861328 C-175.20576763 215.68006202 -169.78221984 223.58090256 -162 229 C-158.17090044 229 -155.77242911 228.43331389 -152.4375 226.5625 C-146.31944914 220.13070294 -142.95373711 212.22998093 -140.5 203.8125 C-140.21084717 202.84852295 -139.92169434 201.8845459 -139.6237793 200.89135742 C-136.79315541 191.0363922 -134.89693746 181.00115223 -133.12890625 170.91137695 C-130.8556193 158.16626635 -128.12093935 145.93835116 -118.5625 136.625 C-112.44135549 132.74329861 -107.18085799 131.0548048 -100 132 C-93.96198173 134.09008325 -90.75688187 137.82769919 -87.75390625 143.25 C-79.39806334 161.15909634 -78.00829631 182.03035138 -75.78710938 201.41918945 C-74.94506626 216.03521935 -74.94506626 216.03521935 -68 228 C-62.43373275 229.85542242 -58.26114769 229.37988972 -53 226.9375 C-37.58604338 218.46446662 -30.14332262 199.35980315 -23 184 C-22.54923096 183.03392822 -22.54923096 183.03392822 -22.08935547 182.04833984 C-10.93369561 157.7344138 -1.53987375 131.16817617 4 105 C4.20447754 104.07590332 4.40895508 103.15180664 4.61962891 102.19970703 C7.53517484 88.61146811 8.38364581 75.22640364 8.4375 61.375 C8.44376404 60.62022369 8.45002808 59.86544739 8.45648193 59.08779907 C8.545735 42.12393488 6.70653958 25.69801439 -5.22265625 12.56640625 C-14.50116663 4.38908172 -23.768536 3.23171652 -35.64697266 3.80419922 C-48.56984406 4.87954087 -60.72802711 11.9107734 -72.24169922 17.45385742 Z " fill="#2b7fff" transform="translate(230,10)"/>
<path d="M0 0 C10.50765638 5.37057993 17.95085612 15.17522908 21.73828125 26.13671875 C24.67372573 36.9399532 24.67069271 52.91867257 20.01171875 63.17578125 C18.84124029 64.9591648 17.50839806 66.49160194 16 68 C13.0625 68.1875 13.0625 68.1875 10 68 C8 66 8 66 7.83642578 62.62695312 C7.86391808 61.1781916 7.90089529 59.72959143 7.9453125 58.28125 C7.97063939 56.69271759 7.9953587 55.1041754 8.01953125 53.515625 C8.06882812 51.01856778 8.12440462 48.52202473 8.19189453 46.02539062 C8.46631599 35.19546677 8.54504992 26.40644213 2.03515625 17.23046875 C1.38417969 16.55628906 0.73320312 15.88210937 0.0625 15.1875 C-0.62714844 14.45273437 -1.31679687 13.71796875 -2.02734375 12.9609375 C-3.64494671 11.35294407 -5.30134966 9.83209033 -7 8.3125 C-9 6 -9 6 -9.3125 2.6875 C-9.209375 1.800625 -9.10625 0.91375 -9 0 C-5.81011624 -1.59494188 -3.42171253 -0.74137105 0 0 Z " fill="#2b7fff" transform="translate(211,26)"/>
<path d="M0 0 C2.81843943 4.22765915 2.78673017 8.0363004 2 13 C-0.125 15.6875 -0.125 15.6875 -3 17 C-6.1875 16.9375 -6.1875 16.9375 -9 16 C-11.50304378 12.24543433 -11.45280074 10.45254066 -11 6 C-7.93610908 0.48499634 -6.30547655 -1.89164297 0 0 Z " fill="#2b7fff" transform="translate(227,104)"/>
</svg>
